# xmcd CD database file
#
# Track frame offsets:
#	150
#	19723
#	38095
#	62121
#	89521
#	105292
#	119122
#	142046
#	156399
#	178669
#	215347
#
# Disc length: 3762 seconds
#
# Revision: 0
# Processed by: cddbd v1.5.1PL0 Copyright (c) Steve Scherf et al.
# Submitted via: CDex 1.51
#
DISCID=9b0eb00b
DTITLE=David Härenstam Band - What happened in Fremantle?
DYEAR=2004
DGENRE=Jazz
TTITLE0=Pont des Arts
TTITLE1=Oblivion
TTITLE2=Willow pattern
TTITLE3=What it is, I am against it!
TTITLE4=Kangaroo Gully
TTITLE5=La Cumparsita
TTITLE6=Silhoutte
TTITLE7=Don't drink and drive or Line for Lyons
TTITLE8=EmbrABCeable you
TTITLE9=Seglats
TTITLE10=Buckets of rain
EXTD=YEAR: 2004
EXTT0=
EXTT1=
EXTT2=
EXTT3=
EXTT4=
EXTT5=
EXTT6=
EXTT7=
EXTT8=
EXTT9=
EXTT10=
PLAYORDER=
